<svg xmlns="http://www.w3.org/2000/svg" width="24" height="24" viewBox="0 0 24 24"><defs><style>.a{fill:none;}.b{fill:#d2d7df;}</style></defs><rect class="a" width="24" height="24"/><path class="b" d="M18.609,5.746h0a1.3,1.3,0,1,0,1.3,1.3A1.3,1.3,0,0,0,18.609,5.746Zm4.981,2.62a8.218,8.218,0,0,0-.5-2.631,5.349,5.349,0,0,0-1.256-1.916,5.089,5.089,0,0,0-1.916-1.245,7.9,7.9,0,0,0-2.631-.509C16.14,2,15.772,2,12.827,2s-3.313,0-4.461.065a7.9,7.9,0,0,0-2.631.509A5.175,5.175,0,0,0,3.819,3.819,5.089,5.089,0,0,0,2.574,5.735a7.9,7.9,0,0,0-.509,2.631C2,9.514,2,9.882,2,12.827s0,3.313.065,4.461a7.9,7.9,0,0,0,.509,2.631,5.089,5.089,0,0,0,1.245,1.916,5.175,5.175,0,0,0,1.916,1.245,7.9,7.9,0,0,0,2.631.509c1.148.065,1.516.065,4.461.065s3.313,0,4.461-.065a7.9,7.9,0,0,0,2.631-.509,5.089,5.089,0,0,0,1.916-1.245,5.251,5.251,0,0,0,1.256-1.916,8.218,8.218,0,0,0,.5-2.631c0-1.148.065-1.516.065-4.461S23.655,9.514,23.59,8.366Zm-1.949,8.792a6.074,6.074,0,0,1-.368,2.014,3.313,3.313,0,0,1-.812,1.245,3.454,3.454,0,0,1-1.245.812A6.074,6.074,0,0,1,17.2,21.6c-1.083.054-1.483.065-4.331.065s-3.248,0-4.331-.065a6.2,6.2,0,0,1-2.1-.325,3.541,3.541,0,0,1-1.191-.812,3.248,3.248,0,0,1-.8-1.245,6,6,0,0,1-.433-2.057c0-1.083-.065-1.483-.065-4.331s0-3.248.065-4.331a6,6,0,0,1,.379-2.057,3.248,3.248,0,0,1,.855-1.191,3.4,3.4,0,0,1,1.191-.866A6.2,6.2,0,0,1,8.5,4.014c1.083,0,1.483-.065,4.331-.065s3.248,0,4.331.065a6.074,6.074,0,0,1,2.014.368,3.313,3.313,0,0,1,1.288.866,3.313,3.313,0,0,1,.812,1.191A6.074,6.074,0,0,1,21.641,8.5c.054,1.083.065,1.483.065,4.331S21.695,16.075,21.641,17.158ZM12.827,7.273a5.544,5.544,0,1,0,3.938,1.62,5.554,5.554,0,0,0-3.938-1.62Zm0,9.16a3.605,3.605,0,1,1,3.605-3.605,3.605,3.605,0,0,1-3.605,3.605Z" transform="translate(-0.77 -0.679)"/></svg>