<svg xmlns="http://www.w3.org/2000/svg" width="24" height="24" viewBox="0 0 24 24"><defs><style>.a{fill:none;}.b{fill:#fff;}</style></defs><rect class="a" width="24" height="24"/><path class="b" d="M23.142,9.745a8.555,8.555,0,0,0-.916-4.157A2.939,2.939,0,0,0,20.5,4.582a78.868,78.868,0,0,0-8.424-.312,78.952,78.952,0,0,0-8.394.3,2.889,2.889,0,0,0-1.469.745C1.3,6.152,1.2,7.581,1.1,8.789a48.6,48.6,0,0,0,0,6.522,9.612,9.612,0,0,0,.3,2.013,3.16,3.16,0,0,0,.715,1.369,2.878,2.878,0,0,0,1.5.785,45.471,45.471,0,0,0,6.542.332c3.523.05,6.612,0,10.266-.282a2.9,2.9,0,0,0,1.54-.785,2.506,2.506,0,0,0,.614-1.006,10.648,10.648,0,0,0,.523-3.422C23.142,13.751,23.142,10.349,23.142,9.745ZM9.8,14.918V8.688l5.958,3.13C14.084,12.744,11.88,13.791,9.8,14.918Z" transform="translate(-0.512 -0.157)"/></svg>